<svg xmlns="http://www.w3.org/2000/svg" viewBox="0 0 174.52 74.35"><title>lsnsw-logo</title><g fill="#f16522"><path d="M24.68 34.51l-1.87-1 .64-2-2 .64-1-1.87-1 1.87-2-.64.64 2-1.87 1 1.87 1-.64 2 2-.64 1 1.87 1-1.87 2 .64-.64-2zm5.32 4.6h-19.45c5.95 17.66 19.45 22.1 19.45 22.1zm-19.45-17.9v8.56h19.45v-8.83l-4.79-4.94-4.67 4.78-4.79-4.9zm43.75-8.54l4.91 4.91v-17.58h-48.63v17.51l4.79-4.79 4.83 4.83 4.8-4.83 4.9 4.9 4.84-4.84 4.85 4.84 4.88-4.88 4.88 4.88zm-23.52 38.1l1.87 1-.64 2 2-.64.99 1.87 1-1.87 2 .64-.64-2 1.87-1-1.87-1 .64-2-2 .64-1-1.87-1 1.87-2-.64.64 2zm0-27.83l1.87 1-.64 2 2-.64 1 1.87 1-1.87 2 .64-.64-2 1.87-1-1.87-1 .63-1.94-2 .64-1-1.87-1 1.87-2-.64.64 2zm23.22 11.57l-1.87-1 .64-2-2 .64-1-1.87-1 1.87-2-.64.64 2-1.87 1 1.87 1-.64 2 2-.64 1 1.87 1-1.87 2 .64-.64-2zm5.11 4.6h-19.4v22.1s13.47-4.44 19.43-22.1m-19.43-17.9v8.56h19.49v-8.83l-4.82-4.94-4.67 4.78-4.79-4.9zm-33.53 14.1c-.09-.8-.8-1.27-1.77-1.17s-1.63.77-1.54 1.55a1.42 1.42 0 0 0 1.7 1.19c.92-.08 1.71-.64 1.61-1.57m22.1 30.69a.68.68 0 0 0 0-.74 2.18 2.18 0 0 0-.78-.53l-.36-.19-.69 1.31.27.14.52.26a.74.74 0 0 0 1.04-.25m3.08 3.13l.28-2.25-1.48 1.73zm9.87-.28c.25-.27.46-.68 0-1.58a1.51 1.51 0 0 0-1.28-1 2.12 2.12 0 0 0-1 .3l-.42.2 1.32 2.83.34-.16a3.16 3.16 0 0 0 1-.56m18.59-17a1.52 1.52 0 0 0-1.62-.27c-.24.14-.33.25-.68.73l-.27.38 2.54 1.82.22-.3a3.16 3.16 0 0 0 .55-1c.09-.36.06-.82-.74-1.39m8.45-16a3.18 3.18 0 0 1-.21.82 2.13 2.13 0 0 1-1 1.11l-.43-.8a1.58 1.58 0 0 0 .89-1.37 1.34 1.34 0 0 0 0-.52.56.56 0 0 0-.48-.49.48.48 0 0 0-.51.29 3.45 3.45 0 0 0-.21.53l-.19.55a4.52 4.52 0 0 1-.24.57 1.21 1.21 0 0 1-1.25.65c-.89-.11-1.37-.93-1.24-2a2.21 2.21 0 0 1 1.18-1.77l.45.78a1.37 1.37 0 0 0-.85 1.13c-.06.47.11.91.46 1s.53-.38.66-.8l.17-.47c.21-.61.58-1.47 1.58-1.35s1.39 1.18 1.26 2.18m-5.19 2.12l2.88.75a1.57 1.57 0 0 1 1.23.85 2.16 2.16 0 0 1 .09 1.39 2.53 2.53 0 0 1-.33.78 1.49 1.49 0 0 1-1.17.7 3.43 3.43 0 0 1-.93-.17l-2.73-.71.22-.85 2.81.73a1.65 1.65 0 0 0 .57.09 1 1 0 0 0 .73-.8 1.15 1.15 0 0 0 0-.79c-.16-.31-.42-.38-.8-.48l-2.76-.72zm-1.35 4.85l4.34 1.87-.34.79-3.53-1.68 3.16 2.47-.36.69-4-.6 3.6 1.46-.34.79-4.26-1.82.51-1.18 3.59.54-2.87-2.19zm-2.46 5.14l4.1 2.36-.43.76-4.1-2.36zm-1.1 2.53a2.44 2.44 0 0 1 2.18.44 2.26 2.26 0 0 1 1.09 2 2.89 2.89 0 0 1-.65 1.4l-.88 1.23-3.85-2.75 1-1.38a2.26 2.26 0 0 1 1.11-.92m-2.91 3.29l3.44 3.24-.53.56-3.83-.77 2.45 2.23-.59.63-3.44-3.23.55-.58 3.86.77-2.5-2.21zm-2.85 4.06l-1.91 1.6.71.85 1.79-1.46.49.59-1.79 1.46.81 1 2-1.71.51.61-2.7 2.27-3-3.62 2.58-2.19zm-3.41 2.77l-1.8 1.33.67 1 1.63-1.12.43.62-1.63 1.12 1.14 1.65-.72.5-2.72-3.97 2.6-1.8zm-5.9 3.75l.55 1 2-1.12.38.66-2 1.12.62 1.1 2.35-1.34.39.69-3.07 1.74-2.32-4.1 2.92-1.66.39.69zm-1 2.4a2.25 2.25 0 0 1 0 2.25 2.91 2.91 0 0 1-1.26.9l-1.37.64-2-4.28 1.53-.71a2.27 2.27 0 0 1 1.42-.26 2.44 2.44 0 0 1 1.68 1.46m-9.68-.58l-.43 5-.86-.38.12-1-1.62-.72-.62.73-.86-.38 3.37-3.68zm-3.37.14a1.29 1.29 0 0 1-1.43.71v2.19l-.9-.47v-2l-.7-.37-.77 1.56-.78-.41 2.21-4.18 1.33.7c.55.3.93.5 1.14 1a1.44 1.44 0 0 1-.08 1.27m-3.49-3.6l-1.58 2.5a1.57 1.57 0 0 1-1.2.9 2.15 2.15 0 0 1-1.45-.4 2.52 2.52 0 0 1-.63-.56 1.49 1.49 0 0 1-.29-1.33 3.41 3.41 0 0 1 .46-.83l1.55-2.36.74.48-1.59 2.43a1.62 1.62 0 0 0-.26.52 1 1 0 0 0 .52 1 1.16 1.16 0 0 0 .76.22c.35-.05.49-.28.71-.61l1.57-2.39zm-4.11-2.78l-2.06 2.63a1.51 1.51 0 0 1-.76.63 1.55 1.55 0 0 1-1.35-.39 2.52 2.52 0 0 1-.39-.38l.54-.68a2.2 2.2 0 0 0 .33.34.73.73 0 0 0 .54.19c.24 0 .36-.19.6-.49l1.86-2.38zm-4.08-3.41l-3.48 3.2-.58-.64 2.91-2.57-3.54 1.88-.54-.59 2.16-3.38-2.8 2.69-.58-.64 3.48-3.19.87.95-2 3 3.19-1.71zm-3.58-4l-2.45 1.69a1.58 1.58 0 0 1-1.45.38 2.17 2.17 0 0 1-1.19-.91 2.57 2.57 0 0 1-.37-.75 1.49 1.49 0 0 1 .24-1.34 3.38 3.38 0 0 1 .74-.66l2.32-1.6.5.73-2.39 1.67a1.6 1.6 0 0 0-.44.38 1 1 0 0 0 .12 1.08 1.15 1.15 0 0 0 .62.49c.34.08.56-.07.89-.29l2.35-1.62zm-2.73-4.22l-4.15 2.24-.42-.76 4.15-2.27zm-1-1.82l-4.37 1.8-.3-.71 2.25-3.19-3 1.34-.37-.79 4.36-1.83.31.73-2.27 3.21 3-1.4zm-1.78-4.34l-4.57 1.18-.22-.84 3.78-.89h-4l-.2-.77 3.51-2-3.76 1.11-.22-.84 4.58-1.16.32 1.24-3.16 1.76h3.64zm-1.3-6.98a2.28 2.28 0 0 1-2.22 2.52 2.28 2.28 0 0 1-2.71-2 2 2 0 0 1 .54-1.69 2.6 2.6 0 0 1 1.67-.81 2.32 2.32 0 0 1 2.72 2m62.55-5.46h-8.07s3.19 24.31-26.6 35.66c-29.79-11.37-26.6-35.69-26.6-35.69h-8.05s-5.23 30.9 34.65 44.59c39.88-13.7 34.65-44.58 34.65-44.58"/><path d="M82.37 37.55v.76h-2.69v-.76h.84v-6.13h-1.46v1.37h-.86v-2.14h5.64v2.14h-.86v-1.37h-1.45v6.13h.84zM89.86 31.42h-.83v-.77h2.68v.77h-.84v6.13h.84v.76h-2.68v-.76h.83v-2.74h-3.46v2.74h.84v.76h-2.68v-.76h.83v-6.13h-.83v-.77h2.68v.77h-.84v2.53h3.46v-2.53zM92.44 37.55h.83v-6.13h-.83v-.77h5.93v2.08h-.9v-1.31h-3.19v2.43h2.66v.84h-2.66v2.86h3.19v-1.5h.9v2.26h-5.93v-.76zM101.99 37.55h.83v-6.13h-.83v-.77h2.81v.77h-.97v6.13h2.56v-1.5h.91v2.26h-5.31v-.76zM110.39 38.31h-2.61v-.77h.71l2.18-6.13h-.94v-.77h3.49v.77h-.95l2.08 6.13h.73v.77h-2.72v-.77h.92l-.61-1.82h-2.62l-.61 1.82h.93zm2.1-3.31l-.91-2.67a3.25 3.25 0 0 1-.18-.69 4.53 4.53 0 0 1-.18.69l-.92 2.67zM117.27 38.44l-2.08-7.02h-.66v-.77h2.47v.77h-.82l1.51 5.08 1.53-5.08h-.87v-.77h2.57v.77h-.88l1.54 5.08 1.51-5.08h-.82v-.77h2.37v.77h-.66l-2.09 7.02h-.66l-1.65-5.5-1.64 5.5h-.67zM129.33 38.31h-.86v-2.63h.86a2.27 2.27 0 0 0 2.22 1.9 1.38 1.38 0 0 0 1.45-1.34c0-.7-.48-1.06-1.47-1.33l-.8-.21c-1.5-.4-2.18-1-2.18-2.13a2.07 2.07 0 0 1 2.31-2.06 2.16 2.16 0 0 1 1.87.82v-.67h.75v2.2h-.75a1.89 1.89 0 0 0-1.94-1.49 1.19 1.19 0 0 0-1.33 1.13c0 .71.49 1 1.43 1.2l.62.16c1.67.41 2.51 1.08 2.51 2.33a2.34 2.34 0 0 1-2.53 2.28 2.88 2.88 0 0 1-2.17-1zM138.85 30.5a3.84 3.84 0 0 1 2.33.73 4 4 0 1 1-2.33-.73m0 7.07a3.09 3.09 0 1 0-2.92-3.09 2.92 2.92 0 0 0 2.92 3.09M147.5 38.46a3.8 3.8 0 0 1-3.9-4 3.8 3.8 0 0 1 3.82-4 3.06 3.06 0 0 1 2.31.86v-.71h.83v2.39h-.79a2.17 2.17 0 0 0-2.29-1.63 2.79 2.79 0 0 0-2.84 3.09 2.85 2.85 0 0 0 2.9 3.09 2.33 2.33 0 0 0 2.34-1.67h.95a3.21 3.21 0 0 1-3.33 2.56"/><path d="M154.18 37.55v.76h-2.68v-.76h.83v-6.13h-.83v-.77h2.68v.77h-.84v6.13h.84zM154.9 37.55h.82v-6.13h-.82v-.77h5.92v2.08h-.9v-1.31h-3.18v2.43h2.66v.84h-2.66v2.86h3.18v-1.5h.9v2.26h-5.92v-.76zM165.72 37.55v.76h-2.69v-.76h.84v-6.13h-1.46v1.37h-.86v-2.14h5.64v2.14h-.86v-1.37h-1.45v6.13h.84zM172.52 37.55v.76h-2.68v-.76h.83v-2.67l-2.01-3.46h-.81v-.77h2.69v.77h-.77l1.43 2.54 1.49-2.54h-.76v-.77h2.58v.77h-.82l-2.01 3.46v2.67h.84zM81.37 41.53a3 3 0 0 1 1.85.58 3.15 3.15 0 1 1-1.85-.58m0 5.61a2.45 2.45 0 1 0-2.31-2.45 2.31 2.31 0 0 0 2.31 2.45"/><path d="M84.97 47.12h.66v-4.87h-.66v-.6h4.7v1.64h-.72v-1.04h-2.52v1.94h2.07v.66h-2.07v2.27h.86v.6h-2.32v-.6zM94.32 47.12v.6h-2.11v-.6h.69v-4.87h-.69v-.6h1.52l2.57 4.42v-3.82h-.67v-.6h2.11v.6h-.69v5.59h-.61l-2.79-4.79v4.07h.67zM98.35 47.12h.66v-4.87h-.66v-.6h4.7v1.64h-.71v-1.04h-2.53v1.94h2.11v.66h-2.11v2.27h2.53v-1.19h.71v1.79h-4.7v-.6zM105.71 47.83l-1.66-5.58h-.52v-.6h1.96v.6h-.65l1.19 4.04 1.22-4.04h-.69v-.6h2.04v.6h-.7l1.23 4.04 1.2-4.04h-.66v-.6h1.88v.6h-.52l-1.66 5.58h-.52l-1.31-4.37-1.3 4.37h-.53zM115.27 47.72h-.68v-2.08h.68a1.8 1.8 0 0 0 1.76 1.5 1.09 1.09 0 0 0 1.16-1.06c0-.56-.38-.84-1.17-1.06l-.63-.17c-1.19-.32-1.73-.83-1.73-1.69a1.64 1.64 0 0 1 1.83-1.64 1.72 1.72 0 0 1 1.49.65v-.53h.59v1.75h-.57a1.5 1.5 0 0 0-1.54-1.18.94.94 0 0 0-1.05.89c0 .57.39.77 1.13 1l.49.13c1.32.33 2 .85 2 1.85a1.86 1.86 0 0 1-2 1.81 2.28 2.28 0 0 1-1.72-.78zM122.84 41.53a3 3 0 0 1 1.85.58 3.15 3.15 0 1 1-1.85-.58m0 5.61a2.45 2.45 0 1 0-2.31-2.45 2.31 2.31 0 0 0 2.31 2.45M129.15 47.14c1 0 1.3-.51 1.3-1.54v-3.35h-.67v-.61h2.14v.61h-.67v3.35c0 1.49-.68 2.25-2.1 2.25s-2.09-.75-2.09-2.25v-3.35h-.67v-.61h2.13v.61h-.66v3.35c0 1 .3 1.54 1.29 1.54"/><path d="M135.81 47.12v.6h-2.13v-.6h.66v-4.87h-1.15v1.09h-.69v-1.69h4.47v1.69h-.68v-1.09h-1.15v4.87h.67zM141.76 42.25h-.66v-.6h2.13v.6h-.67v4.87h.67v.6h-2.13v-.6h.66v-2.17h-2.75v2.17h.67v.6h-2.13v-.6h.66v-4.87h-.66v-.6h2.13v.6h-.67v2.01h2.75v-2.01zM148.01 47.83l-1.66-5.58h-.52v-.6h1.96v.6h-.65l1.2 4.04 1.21-4.04h-.69v-.6h2.04v.6h-.7l1.23 4.04 1.19-4.04h-.65v-.6h1.88v.6h-.53l-1.65 5.58h-.52l-1.31-4.37-1.3 4.37h-.53zM155.45 47.72h-2.07v-.61h.57l1.73-4.86h-.74v-.61h2.77v.61h-.75l1.66 4.86h.58v.61h-2.2v-.61h.73l-.48-1.44h-2.08l-.48 1.44h.73zm1.67-2.66l-.73-2.12a2.53 2.53 0 0 1-.14-.55 3.63 3.63 0 0 1-.14.55l-.73 2.12zM159.61 47.12h.66v-4.87h-.66v-.6h2.23v.6h-.77v4.87h2.03v-1.19h.72v1.79h-4.21v-.6zM164.37 47.12h.66v-4.87h-.66v-.6h4.71v1.64h-.72v-1.04h-2.53v1.94h2.11v.66h-2.11v2.27h2.53v-1.19h.72v1.79h-4.71v-.6zM170.79 47.72h-.68v-2.08h.68a1.8 1.8 0 0 0 1.76 1.5 1.09 1.09 0 0 0 1.16-1.06c0-.56-.38-.84-1.17-1.06l-.63-.17c-1.19-.32-1.73-.83-1.73-1.69a1.64 1.64 0 0 1 1.82-1.63 1.72 1.72 0 0 1 1.49.65v-.53h.59v1.75h-.59a1.5 1.5 0 0 0-1.49-1.19.94.94 0 0 0-1.05.89c0 .57.39.77 1.13 1l.49.13c1.32.33 2 .85 2 1.85a1.86 1.86 0 0 1-2 1.81 2.29 2.29 0 0 1-1.72-.78z"/></g></svg>